<svg width="154" height="25" viewBox="0 0 154 25" fill="none" xmlns="http://www.w3.org/2000/svg">
<path d="M11.008 24.064C9.00266 24.064 7.22133 23.68 5.664 22.912C4.10666 22.144 2.88 21.0773 1.984 19.712C1.10933 18.3253 0.671997 16.7467 0.671997 14.976C0.671997 13.2053 1.10933 11.6373 1.984 10.272C2.88 8.90667 4.10666 7.84 5.664 7.072C7.22133 6.304 9.00266 5.92 11.008 5.92C13.1413 5.92 14.9653 6.37867 16.48 7.296C17.9947 8.21333 19.04 9.48267 19.616 11.104L14.016 13.856C13.6533 13.0453 13.2053 12.4587 12.672 12.096C12.16 11.7333 11.5947 11.552 10.976 11.552C10.4427 11.552 9.94133 11.68 9.472 11.936C9.024 12.192 8.66133 12.576 8.384 13.088C8.128 13.5787 8 14.208 8 14.976C8 15.744 8.128 16.384 8.384 16.896C8.66133 17.408 9.024 17.792 9.472 18.048C9.94133 18.304 10.4427 18.432 10.976 18.432C11.5947 18.432 12.16 18.2507 12.672 17.888C13.2053 17.5253 13.6533 16.9387 14.016 16.128L19.616 18.88C19.04 20.5013 17.9947 21.7707 16.48 22.688C14.9653 23.6053 13.1413 24.064 11.008 24.064Z" fill="white"/>
<path d="M27.9435 24.064C26.5568 24.064 25.2982 23.7867 24.1675 23.232C23.0582 22.656 22.1835 21.7707 21.5435 20.576C20.9035 19.36 20.5835 17.8027 20.5835 15.904V6.24H27.8155V14.656C27.8155 15.8933 28.0182 16.7573 28.4235 17.248C28.8288 17.7387 29.3835 17.984 30.0875 17.984C30.5142 17.984 30.9088 17.8773 31.2715 17.664C31.6555 17.4293 31.9648 17.056 32.1995 16.544C32.4342 16.0107 32.5515 15.3173 32.5515 14.464V6.24H39.7835V23.744H32.9035V18.688L34.2795 20.064C33.6608 21.4293 32.7755 22.4427 31.6235 23.104C30.4928 23.744 29.2662 24.064 27.9435 24.064Z" fill="white"/>
<path d="M42.3512 23.744V6.24H49.2312V11.52L48.1112 10.016C48.6446 8.65067 49.4979 7.62667 50.6712 6.944C51.8446 6.26133 53.2526 5.92 54.8952 5.92V12.32C54.5752 12.2773 54.2872 12.2453 54.0312 12.224C53.7966 12.2027 53.5512 12.192 53.2952 12.192C52.2072 12.192 51.3112 12.48 50.6073 13.056C49.9246 13.6107 49.5832 14.5813 49.5832 15.968V23.744H42.3512Z" fill="white"/>
<path d="M65.2218 24.064C62.8111 24.064 60.9337 23.488 59.5897 22.336C58.2457 21.1627 57.5737 19.3707 57.5737 16.96V2.304H64.8058V16.896C64.8058 17.4293 64.9444 17.8453 65.2218 18.144C65.5204 18.4427 65.8831 18.592 66.3098 18.592C66.9284 18.592 67.4724 18.432 67.9417 18.112L69.6698 23.136C69.1151 23.456 68.4431 23.6907 67.6538 23.84C66.8858 23.9893 66.0751 24.064 65.2218 24.064ZM55.1737 12.48V7.2H68.3898V12.48H55.1737Z" fill="white"/>
<path d="M79.6318 24.064C77.6478 24.064 75.8878 23.68 74.3518 22.912C72.8371 22.1227 71.6424 21.0453 70.7678 19.68C69.8931 18.3147 69.4557 16.7467 69.4557 14.976C69.4557 13.2053 69.8931 11.6373 70.7678 10.272C71.6424 8.90667 72.8371 7.84 74.3518 7.072C75.8878 6.304 77.6478 5.92 79.6318 5.92C81.6158 5.92 83.3757 6.304 84.9118 7.072C86.4478 7.84 87.6424 8.90667 88.4958 10.272C89.3704 11.6373 89.8078 13.2053 89.8078 14.976C89.8078 16.7467 89.3704 18.3147 88.4958 19.68C87.6424 21.0453 86.4478 22.1227 84.9118 22.912C83.3757 23.68 81.6158 24.064 79.6318 24.064ZM79.6318 18.432C80.1651 18.432 80.6451 18.304 81.0718 18.048C81.4984 17.792 81.8398 17.408 82.0957 16.896C82.3517 16.3627 82.4798 15.7227 82.4798 14.976C82.4798 14.208 82.3517 13.5787 82.0957 13.088C81.8398 12.576 81.4984 12.192 81.0718 11.936C80.6451 11.68 80.1651 11.552 79.6318 11.552C79.0984 11.552 78.6184 11.68 78.1917 11.936C77.7651 12.192 77.4238 12.576 77.1678 13.088C76.9118 13.5787 76.7838 14.208 76.7838 14.976C76.7838 15.7227 76.9118 16.3627 77.1678 16.896C77.4238 17.408 77.7651 17.792 78.1917 18.048C78.6184 18.304 79.0984 18.432 79.6318 18.432Z" fill="white"/>
<path d="M94.6953 24.064C93.5006 24.064 92.4979 23.68 91.6873 22.912C90.8766 22.1227 90.4713 21.12 90.4713 19.904C90.4713 18.6667 90.8766 17.6747 91.6873 16.928C92.4979 16.1813 93.5006 15.808 94.6953 15.808C95.8899 15.808 96.8926 16.1813 97.7033 16.928C98.5139 17.6747 98.9193 18.6667 98.9193 19.904C98.9193 21.12 98.5139 22.1227 97.7033 22.912C96.8926 23.68 95.8899 24.064 94.6953 24.064Z" fill="white"/>
<path d="M102.302 23.744V0H103.902V23.744H102.302Z" fill="white"/>
<path d="M110.006 23.744V7.04H111.606V23.744H110.006ZM110.806 2.976C110.443 2.976 110.134 2.848 109.878 2.592C109.622 2.336 109.494 2.03733 109.494 1.696C109.494 1.33333 109.622 1.024 109.878 0.768C110.134 0.512 110.443 0.384001 110.806 0.384001C111.19 0.384001 111.499 0.512 111.734 0.768C111.99 1.00267 112.118 1.30133 112.118 1.664C112.118 2.02667 111.99 2.336 111.734 2.592C111.499 2.848 111.19 2.976 110.806 2.976Z" fill="white"/>
<path d="M125.869 6.912C127.235 6.912 128.419 7.17867 129.421 7.712C130.445 8.224 131.235 9.01333 131.789 10.08C132.365 11.1253 132.654 12.4267 132.654 13.984V23.744H131.053V14.112C131.053 12.2347 130.574 10.8053 129.613 9.824C128.675 8.84267 127.352 8.352 125.646 8.352C124.344 8.352 123.213 8.61867 122.253 9.152C121.293 9.68533 120.557 10.432 120.045 11.392C119.555 12.352 119.309 13.504 119.309 14.848V23.744H117.709V7.04H119.245V11.68L119.021 11.168C119.534 9.84533 120.376 8.81067 121.549 8.064C122.723 7.296 124.163 6.912 125.869 6.912Z" fill="white"/>
<path d="M139.817 19.136L139.849 17.12L150.889 7.04H152.937L145.609 13.92L144.649 14.72L139.817 19.136ZM138.601 23.744V0H140.201V23.744H138.601ZM151.657 23.744L144.361 14.592L145.449 13.408L153.641 23.744H151.657Z" fill="white"/>
</svg>
