<svg width="151" height="24" viewBox="0 0 151 24" fill="none" xmlns="http://www.w3.org/2000/svg">
<path d="M10.8074 23.853C8.84099 23.853 7.09422 23.4764 5.56711 22.7233C4.04001 21.9702 2.83715 20.9243 1.95853 19.5855C1.10084 18.2257 0.671997 16.6777 0.671997 14.9414C0.671997 13.2051 1.10084 11.6675 1.95853 10.3287C2.83715 8.98982 4.04001 7.94386 5.56711 7.19076C7.09422 6.43767 8.84099 6.06112 10.8074 6.06112C12.8993 6.06112 14.6879 6.51088 16.1732 7.41042C17.6585 8.30994 18.6835 9.55464 19.2483 11.1445L13.757 13.8431C13.4014 13.0482 12.9621 12.4729 12.4391 12.1173C11.937 11.7616 11.3827 11.5838 10.776 11.5838C10.253 11.5838 9.76144 11.7093 9.30121 11.9604C8.8619 12.2114 8.50628 12.5879 8.23433 13.09C7.98329 13.5712 7.85778 14.1883 7.85778 14.9414C7.85778 15.6945 7.98329 16.322 8.23433 16.8241C8.50628 17.3262 8.8619 17.7027 9.30121 17.9537C9.76144 18.2048 10.253 18.3303 10.776 18.3303C11.3827 18.3303 11.937 18.1525 12.4391 17.7968C12.9621 17.4412 13.4014 16.8659 13.757 16.071L19.2483 18.7696C18.6835 20.3595 17.6585 21.6042 16.1732 22.5037C14.6879 23.4032 12.8993 23.853 10.8074 23.853Z" fill="#141C2F"/>
<path d="M27.4142 23.853C26.0545 23.853 24.8202 23.581 23.7115 23.0371C22.6237 22.4723 21.766 21.6042 21.1384 20.4327C20.5109 19.2403 20.1971 17.7132 20.1971 15.8514V6.37491H27.2887V14.6276C27.2887 15.8409 27.4874 16.6881 27.8849 17.1693C28.2824 17.6504 28.8263 17.891 29.5166 17.891C29.935 17.891 30.322 17.7864 30.6776 17.5772C31.0542 17.3471 31.3575 16.981 31.5876 16.4789C31.8177 15.956 31.9328 15.2761 31.9328 14.4393V6.37491H39.0244V23.5392H32.278V18.5813L33.6273 19.9306C33.0206 21.2695 32.1524 22.2631 31.0228 22.9116C29.9141 23.5392 28.7112 23.853 27.4142 23.853Z" fill="#141C2F"/>
<path d="M41.5424 23.5392V6.37491H48.2888V11.5524L47.1906 10.0776C47.7135 8.73879 48.5503 7.73466 49.7009 7.06525C50.8514 6.39583 52.2321 6.06112 53.8429 6.06112V12.3369C53.5291 12.2951 53.2467 12.2637 52.9957 12.2428C52.7656 12.2219 52.525 12.2114 52.274 12.2114C51.2071 12.2114 50.3285 12.4938 49.6381 13.0586C48.9687 13.6025 48.634 14.5544 48.634 15.9141V23.5392H41.5424Z" fill="#141C2F"/>
<path d="M63.969 23.853C61.6051 23.853 59.7642 23.2882 58.4463 22.1585C57.1284 21.008 56.4694 19.2507 56.4694 16.8869V2.5153H63.5611V16.8241C63.5611 17.3471 63.697 17.755 63.969 18.0479C64.2619 18.3408 64.6175 18.4872 65.0359 18.4872C65.6425 18.4872 66.176 18.3303 66.6362 18.0165L68.3307 22.943C67.7868 23.2568 67.1278 23.4869 66.3538 23.6333C65.6007 23.7798 64.8058 23.853 63.969 23.853ZM54.116 12.4938V7.31628H67.0755V12.4938H54.116Z" fill="#141C2F"/>
<path d="M78.0993 23.853C76.1538 23.853 74.428 23.4764 72.9218 22.7233C71.4365 21.9493 70.2651 20.8929 69.4074 19.5541C68.5497 18.2152 68.1208 16.6777 68.1208 14.9414C68.1208 13.2051 68.5497 11.6675 69.4074 10.3287C70.2651 8.98982 71.4365 7.94386 72.9218 7.19076C74.428 6.43767 76.1538 6.06112 78.0993 6.06112C80.0448 6.06112 81.7707 6.43767 83.2769 7.19076C84.783 7.94386 85.9545 8.98982 86.7913 10.3287C87.649 11.6675 88.0778 13.2051 88.0778 14.9414C88.0778 16.6777 87.649 18.2152 86.7913 19.5541C85.9545 20.8929 84.783 21.9493 83.2769 22.7233C81.7707 23.4764 80.0448 23.853 78.0993 23.853ZM78.0993 18.3303C78.6223 18.3303 79.093 18.2048 79.5114 17.9537C79.9298 17.7027 80.2645 17.3262 80.5155 16.8241C80.7665 16.3011 80.8921 15.6735 80.8921 14.9414C80.8921 14.1883 80.7665 13.5712 80.5155 13.09C80.2645 12.5879 79.9298 12.2114 79.5114 11.9604C79.093 11.7093 78.6223 11.5838 78.0993 11.5838C77.5763 11.5838 77.1057 11.7093 76.6873 11.9604C76.2689 12.2114 75.9342 12.5879 75.6832 13.09C75.4321 13.5712 75.3066 14.1883 75.3066 14.9414C75.3066 15.6735 75.4321 16.3011 75.6832 16.8241C75.9342 17.3262 76.2689 17.7027 76.6873 17.9537C77.1057 18.2048 77.5763 18.3303 78.0993 18.3303Z" fill="#141C2F"/>
<path d="M92.8705 23.853C91.699 23.853 90.7158 23.4764 89.9209 22.7233C89.1259 21.9493 88.7285 20.9661 88.7285 19.7737C88.7285 18.5604 89.1259 17.5877 89.9209 16.8555C90.7158 16.1233 91.699 15.7572 92.8705 15.7572C94.042 15.7572 95.0252 16.1233 95.8201 16.8555C96.615 17.5877 97.0125 18.5604 97.0125 19.7737C97.0125 20.9661 96.615 21.9493 95.8201 22.7233C95.0252 23.4764 94.042 23.853 92.8705 23.853Z" fill="#141C2F"/>
<path d="M100.33 23.5392V0.256012H101.899V23.5392H100.33Z" fill="#141C2F"/>
<path d="M107.884 23.5392V7.15938H109.453V23.5392H107.884ZM108.668 3.17425C108.313 3.17425 108.009 3.04874 107.758 2.79771C107.507 2.54668 107.382 2.25381 107.382 1.9191C107.382 1.56347 107.507 1.26014 107.758 1.00911C108.009 0.758076 108.313 0.63256 108.668 0.63256C109.045 0.63256 109.348 0.758076 109.578 1.00911C109.829 1.23922 109.955 1.53209 109.955 1.88772C109.955 2.24335 109.829 2.54668 109.578 2.79771C109.348 3.04874 109.045 3.17425 108.668 3.17425Z" fill="#141C2F"/>
<path d="M123.44 7.03387C124.779 7.03387 125.94 7.29536 126.923 7.81834C127.927 8.3204 128.701 9.09442 129.245 10.1404C129.81 11.1654 130.092 12.4415 130.092 13.9686V23.5392H128.523V14.0941C128.523 12.2532 128.052 10.8516 127.111 9.88935C126.191 8.92706 124.894 8.44592 123.22 8.44592C121.944 8.44592 120.835 8.70741 119.894 9.23039C118.953 9.75338 118.231 10.4856 117.729 11.4269C117.248 12.3683 117.007 13.4979 117.007 14.8158V23.5392H115.438V7.15938H116.944V11.7093L116.725 11.2073C117.227 9.91027 118.053 8.89569 119.204 8.16351C120.354 7.41041 121.766 7.03387 123.44 7.03387Z" fill="#141C2F"/>
<path d="M137.116 19.0206L137.148 17.0438L147.973 7.15938H149.982L142.796 13.9059L141.855 14.6903L137.116 19.0206ZM135.924 23.5392V0.256012H137.493V23.5392H135.924ZM148.726 23.5392L141.572 14.5648L142.639 13.4038L150.672 23.5392H148.726Z" fill="#141C2F"/>
</svg>
