<svg width="18" height="17" viewBox="0 0 18 17" fill="none" xmlns="http://www.w3.org/2000/svg">
<path d="M16.75 5.25H15.5V4C15.5 3.83424 15.4342 3.67527 15.3169 3.55806C15.1997 3.44085 15.0408 3.375 14.875 3.375C14.7092 3.375 14.5503 3.44085 14.4331 3.55806C14.3158 3.67527 14.25 3.83424 14.25 4V5.25H13C12.8342 5.25 12.6753 5.31585 12.5581 5.43306C12.4408 5.55027 12.375 5.70924 12.375 5.875C12.375 6.04076 12.4408 6.19973 12.5581 6.31694C12.6753 6.43415 12.8342 6.5 13 6.5H14.25V7.75C14.25 7.91576 14.3158 8.07473 14.4331 8.19194C14.5503 8.30915 14.7092 8.375 14.875 8.375C15.0408 8.375 15.1997 8.30915 15.3169 8.19194C15.4342 8.07473 15.5 7.91576 15.5 7.75V6.5H16.75C16.9158 6.5 17.0747 6.43415 17.1919 6.31694C17.3092 6.19973 17.375 6.04076 17.375 5.875C17.375 5.70924 17.3092 5.55027 17.1919 5.43306C17.0747 5.31585 16.9158 5.25 16.75 5.25Z" fill="#94A3B8"/>
<path d="M9.875 2.75H10.5V3.375C10.5 3.54076 10.5658 3.69973 10.6831 3.81694C10.8003 3.93415 10.9592 4 11.125 4C11.2908 4 11.4497 3.93415 11.5669 3.81694C11.6842 3.69973 11.75 3.54076 11.75 3.375V2.75H12.375C12.5408 2.75 12.6997 2.68415 12.8169 2.56694C12.9342 2.44973 13 2.29076 13 2.125C13 1.95924 12.9342 1.80027 12.8169 1.68306C12.6997 1.56585 12.5408 1.5 12.375 1.5H11.75V0.875C11.75 0.70924 11.6842 0.550268 11.5669 0.433058C11.4497 0.315848 11.2908 0.25 11.125 0.25C10.9592 0.25 10.8003 0.315848 10.6831 0.433058C10.5658 0.550268 10.5 0.70924 10.5 0.875V1.5H9.875C9.70924 1.5 9.55027 1.56585 9.43306 1.68306C9.31585 1.80027 9.25 1.95924 9.25 2.125C9.25 2.29076 9.31585 2.44973 9.43306 2.56694C9.55027 2.68415 9.70924 2.75 9.875 2.75Z" fill="#94A3B8"/>
<path d="M14.9141 10.2969L14.7422 10.3281C13.6232 10.637 12.4423 10.6435 11.3199 10.347C10.1976 10.0505 9.17395 9.46156 8.3535 8.64032C7.53305 7.81907 6.94512 6.79489 6.6497 5.67226C6.35427 4.54962 6.36192 3.36872 6.67187 2.25C6.68718 2.20469 6.6951 2.15721 6.69531 2.10938C6.70314 1.97854 6.66964 1.84854 6.59953 1.73778C6.52944 1.62703 6.42629 1.54111 6.30468 1.49219C6.17505 1.44063 6.03164 1.43512 5.89843 1.47657C4.58413 1.84336 3.38882 2.54799 2.43147 3.52031C1.47413 4.49264 0.788149 5.69875 0.441812 7.01859C0.0954755 8.33843 0.100863 9.72596 0.457438 11.0431C0.814013 12.3602 1.50934 13.5609 2.4742 14.5258C3.43907 15.4907 4.63982 16.186 5.95692 16.5426C7.27403 16.8991 8.66157 16.9045 9.98141 16.5582C11.3012 16.2118 12.5074 15.5259 13.4797 14.5685C14.452 13.6112 15.1566 12.4159 15.5234 11.1016C15.5623 10.9796 15.5623 10.8485 15.5234 10.7266C15.4794 10.6003 15.397 10.491 15.2877 10.4139C15.1784 10.3369 15.0478 10.2959 14.9141 10.2969Z" fill="#94A3B8"/>
</svg>
