<svg width="20" height="20" viewBox="0 0 20 20" fill="none" xmlns="http://www.w3.org/2000/svg">
<path d="M10 15.3125C12.934 15.3125 15.3125 12.934 15.3125 10C15.3125 7.06599 12.934 4.6875 10 4.6875C7.06599 4.6875 4.6875 7.06599 4.6875 10C4.6875 12.934 7.06599 15.3125 10 15.3125Z" fill="#94A3B8"/>
<path d="M10 3.4375C10.1658 3.4375 10.3247 3.37165 10.4419 3.25444C10.5592 3.13723 10.625 2.97826 10.625 2.8125V1.25C10.625 1.08424 10.5592 0.925268 10.4419 0.808058C10.3247 0.690848 10.1658 0.625 10 0.625C9.83424 0.625 9.67527 0.690848 9.55806 0.808058C9.44085 0.925268 9.375 1.08424 9.375 1.25V2.8125C9.375 2.97826 9.44085 3.13723 9.55806 3.25444C9.67527 3.37165 9.83424 3.4375 10 3.4375Z" fill="#94A3B8"/>
<path d="M4.47646 5.35938C4.59461 5.4744 4.75299 5.53875 4.91787 5.53875C5.08276 5.53875 5.24113 5.4744 5.35928 5.35938C5.47616 5.24222 5.5418 5.08348 5.5418 4.91798C5.5418 4.75248 5.47616 4.59374 5.35928 4.47657L4.25771 3.3672C4.20168 3.29892 4.13196 3.24313 4.05306 3.20341C3.97416 3.1637 3.88782 3.14094 3.7996 3.13661C3.71137 3.13228 3.62322 3.14646 3.5408 3.17825C3.45839 3.21004 3.38355 3.25874 3.32109 3.3212C3.25863 3.38366 3.20994 3.4585 3.17815 3.54091C3.14636 3.62332 3.13217 3.71148 3.1365 3.7997C3.14084 3.88793 3.16359 3.97427 3.20331 4.05317C3.24302 4.13207 3.29881 4.20178 3.36709 4.25782L4.47646 5.35938Z" fill="#94A3B8"/>
<path d="M3.4375 10C3.4375 9.83424 3.37165 9.67527 3.25444 9.55806C3.13723 9.44085 2.97826 9.375 2.8125 9.375H1.25C1.08424 9.375 0.925268 9.44085 0.808058 9.55806C0.690848 9.67527 0.625 9.83424 0.625 10C0.625 10.1658 0.690848 10.3247 0.808058 10.4419C0.925268 10.5592 1.08424 10.625 1.25 10.625H2.8125C2.97826 10.625 3.13723 10.5592 3.25444 10.4419C3.37165 10.3247 3.4375 10.1658 3.4375 10Z" fill="#94A3B8"/>
<path d="M4.47666 14.6406L3.36729 15.7422C3.24992 15.8607 3.18408 16.0207 3.18408 16.1875C3.18408 16.3543 3.24992 16.5143 3.36729 16.6328C3.48811 16.7462 3.64694 16.8102 3.8126 16.8125C3.97856 16.8118 4.13794 16.7475 4.25791 16.6328L5.35947 15.5234C5.4672 15.4045 5.52508 15.2488 5.52113 15.0884C5.51718 14.928 5.4517 14.7753 5.33826 14.6618C5.22481 14.5484 5.07209 14.4829 4.9117 14.479C4.75131 14.475 4.59555 14.5329 4.47666 14.6406Z" fill="#94A3B8"/>
<path d="M10 16.5625C9.83424 16.5625 9.67527 16.6283 9.55806 16.7456C9.44085 16.8628 9.375 17.0217 9.375 17.1875V18.75C9.375 18.9158 9.44085 19.0747 9.55806 19.1919C9.67527 19.3092 9.83424 19.375 10 19.375C10.1658 19.375 10.3247 19.3092 10.4419 19.1919C10.5592 19.0747 10.625 18.9158 10.625 18.75V17.1875C10.625 17.0217 10.5592 16.8628 10.4419 16.7456C10.3247 16.6283 10.1658 16.5625 10 16.5625Z" fill="#94A3B8"/>
<path d="M15.5233 14.6406C15.4044 14.5329 15.2486 14.475 15.0883 14.479C14.9279 14.4829 14.7751 14.5484 14.6617 14.6618C14.5483 14.7753 14.4828 14.928 14.4788 15.0884C14.4749 15.2488 14.5328 15.4045 14.6405 15.5234L15.742 16.6328C15.862 16.7475 16.0214 16.8118 16.1874 16.8125C16.353 16.8102 16.5118 16.7462 16.6327 16.6328C16.75 16.5143 16.8159 16.3543 16.8159 16.1875C16.8159 16.0207 16.75 15.8607 16.6327 15.7422L15.5233 14.6406Z" fill="#94A3B8"/>
<path d="M18.75 9.375H17.1875C17.0217 9.375 16.8628 9.44085 16.7456 9.55806C16.6283 9.67527 16.5625 9.83424 16.5625 10C16.5625 10.1658 16.6283 10.3247 16.7456 10.4419C16.8628 10.5592 17.0217 10.625 17.1875 10.625H18.75C18.9158 10.625 19.0747 10.5592 19.1919 10.4419C19.3092 10.3247 19.375 10.1658 19.375 10C19.375 9.83424 19.3092 9.67527 19.1919 9.55806C19.0747 9.44085 18.9158 9.375 18.75 9.375Z" fill="#94A3B8"/>
<path d="M15.086 5.53907C15.1672 5.53979 15.2477 5.52426 15.3229 5.4934C15.398 5.46254 15.4662 5.41698 15.5235 5.35938L16.6328 4.25782C16.7325 4.13638 16.7834 3.98222 16.7757 3.82531C16.768 3.6684 16.7022 3.51997 16.5911 3.40889C16.4801 3.2978 16.3316 3.23201 16.1747 3.2243C16.0178 3.2166 15.8637 3.26753 15.7422 3.36719L14.6407 4.47657C14.5238 4.59374 14.4581 4.75248 14.4581 4.91798C14.4581 5.08347 14.5238 5.24222 14.6407 5.35938C14.6988 5.41793 14.7683 5.46405 14.8449 5.49494C14.9214 5.52583 15.0034 5.54084 15.086 5.53907Z" fill="#94A3B8"/>
</svg>
